<?xml version="1.0" encoding="UTF-8" standalone="no"?>
<!DOCTYPE svg PUBLIC "-//W3C//DTD SVG 1.1//EN"
 "http://www.w3.org/Graphics/SVG/1.1/DTD/svg11.dtd">
<!-- Generated by graphviz version 12.2.1 (0)
 -->
<!-- Title: AST Pages: 1 -->
<svg width="965pt" height="764pt"
 viewBox="0.00 0.00 965.25 764.00" xmlns="http://www.w3.org/2000/svg" xmlns:xlink="http://www.w3.org/1999/xlink">
<g id="graph0" class="graph" transform="scale(1 1) rotate(0) translate(4 760)">
<title>AST</title>
<polygon fill="white" stroke="none" points="-4,4 -4,-760 961.25,-760 961.25,4 -4,4"/>
<!-- node1 -->
<g id="node1" class="node">
<title>node1</title>
<polygon fill="none" stroke="lightblue" points="246.75,-756 182.75,-756 182.75,-720 246.75,-720 246.75,-756"/>
<text text-anchor="middle" x="214.75" y="-732.58" font-family="Times,serif" font-size="14.00">Program</text>
</g>
<!-- node2 -->
<g id="node2" class="node">
<title>node2</title>
<polygon fill="none" stroke="red" points="280.5,-684 149,-684 149,-648 280.5,-648 280.5,-684"/>
<text text-anchor="middle" x="214.75" y="-660.58" font-family="Times,serif" font-size="14.00">Function Declaration</text>
</g>
<!-- node1&#45;&gt;node2 -->
<g id="edge1" class="edge">
<title>node1&#45;&gt;node2</title>
<path fill="none" stroke="black" d="M214.75,-719.7C214.75,-712.41 214.75,-703.73 214.75,-695.54"/>
<polygon fill="black" stroke="black" points="218.25,-695.62 214.75,-685.62 211.25,-695.62 218.25,-695.62"/>
</g>
<!-- node3 -->
<g id="node3" class="node">
<title>node3</title>
<polygon fill="none" stroke="black" points="89.5,-612 0,-612 0,-576 89.5,-576 89.5,-612"/>
<text text-anchor="middle" x="44.75" y="-588.58" font-family="Times,serif" font-size="14.00">Name: magic</text>
</g>
<!-- node2&#45;&gt;node3 -->
<g id="edge2" class="edge">
<title>node2&#45;&gt;node3</title>
<path fill="none" stroke="black" d="M172.29,-647.52C149.59,-638.17 121.43,-626.57 97.35,-616.66"/>
<polygon fill="black" stroke="black" points="98.94,-613.53 88.36,-612.96 96.28,-620 98.94,-613.53"/>
</g>
<!-- node4 -->
<g id="node4" class="node">
<title>node4</title>
<polygon fill="none" stroke="black" points="213.75,-612 107.75,-612 107.75,-576 213.75,-576 213.75,-612"/>
<text text-anchor="middle" x="160.75" y="-588.58" font-family="Times,serif" font-size="14.00">Return Type: int</text>
</g>
<!-- node2&#45;&gt;node4 -->
<g id="edge3" class="edge">
<title>node2&#45;&gt;node4</title>
<path fill="none" stroke="black" d="M201.4,-647.7C195.19,-639.64 187.67,-629.89 180.79,-620.98"/>
<polygon fill="black" stroke="black" points="183.75,-619.08 174.87,-613.3 178.21,-623.36 183.75,-619.08"/>
</g>
<!-- node5 -->
<g id="node5" class="node">
<title>node5</title>
<polygon fill="none" stroke="lightgreen" points="307.75,-612 231.75,-612 231.75,-576 307.75,-576 307.75,-612"/>
<text text-anchor="middle" x="269.75" y="-588.58" font-family="Times,serif" font-size="14.00">Parameters</text>
</g>
<!-- node2&#45;&gt;node5 -->
<g id="edge4" class="edge">
<title>node2&#45;&gt;node5</title>
<path fill="none" stroke="black" d="M228.35,-647.7C234.67,-639.64 242.33,-629.89 249.34,-620.98"/>
<polygon fill="black" stroke="black" points="251.95,-623.32 255.38,-613.29 246.45,-619 251.95,-623.32"/>
</g>
<!-- node8 -->
<g id="node8" class="node">
<title>node8</title>
<polygon fill="none" stroke="black" points="400.75,-612 346.75,-612 346.75,-576 400.75,-576 400.75,-612"/>
<text text-anchor="middle" x="373.75" y="-588.58" font-family="Times,serif" font-size="14.00">Body</text>
</g>
<!-- node2&#45;&gt;node8 -->
<g id="edge7" class="edge">
<title>node2&#45;&gt;node8</title>
<path fill="none" stroke="black" d="M254.46,-647.52C279.46,-636.51 311.53,-622.39 336.12,-611.57"/>
<polygon fill="black" stroke="black" points="337.37,-614.84 345.12,-607.61 334.55,-608.43 337.37,-614.84"/>
</g>
<!-- node6 -->
<g id="node6" class="node">
<title>node6</title>
<polygon fill="none" stroke="black" points="200.25,-540 97.25,-540 97.25,-504 200.25,-504 200.25,-540"/>
<text text-anchor="middle" x="148.75" y="-516.58" font-family="Times,serif" font-size="14.00">Parameter: int x</text>
</g>
<!-- node5&#45;&gt;node6 -->
<g id="edge5" class="edge">
<title>node5&#45;&gt;node6</title>
<path fill="none" stroke="black" d="M239.53,-575.52C223.96,-566.51 204.8,-555.42 188.09,-545.76"/>
<polygon fill="black" stroke="black" points="190.3,-543 179.9,-541.02 186.8,-549.06 190.3,-543"/>
</g>
<!-- node7 -->
<g id="node7" class="node">
<title>node7</title>
<polygon fill="none" stroke="black" points="321.25,-540 218.25,-540 218.25,-504 321.25,-504 321.25,-540"/>
<text text-anchor="middle" x="269.75" y="-516.58" font-family="Times,serif" font-size="14.00">Parameter: int n</text>
</g>
<!-- node5&#45;&gt;node7 -->
<g id="edge6" class="edge">
<title>node5&#45;&gt;node7</title>
<path fill="none" stroke="black" d="M269.75,-575.7C269.75,-568.41 269.75,-559.73 269.75,-551.54"/>
<polygon fill="black" stroke="black" points="273.25,-551.62 269.75,-541.62 266.25,-551.62 273.25,-551.62"/>
</g>
<!-- node9 -->
<g id="node9" class="node">
<title>node9</title>
<polygon fill="none" stroke="purple" points="448.25,-540 339.25,-540 339.25,-504 448.25,-504 448.25,-540"/>
<text text-anchor="middle" x="393.75" y="-516.58" font-family="Times,serif" font-size="14.00">BlockExpression</text>
</g>
<!-- node8&#45;&gt;node9 -->
<g id="edge8" class="edge">
<title>node8&#45;&gt;node9</title>
<path fill="none" stroke="black" d="M378.69,-575.7C380.83,-568.24 383.37,-559.32 385.76,-550.97"/>
<polygon fill="black" stroke="black" points="389.07,-552.14 388.45,-541.56 382.33,-550.21 389.07,-552.14"/>
</g>
<!-- node10 -->
<g id="node10" class="node">
<title>node10</title>
<polygon fill="none" stroke="purple" points="369.25,-468 260.25,-468 260.25,-432 369.25,-432 369.25,-468"/>
<text text-anchor="middle" x="314.75" y="-444.57" font-family="Times,serif" font-size="14.00">BlockExpression</text>
</g>
<!-- node9&#45;&gt;node10 -->
<g id="edge9" class="edge">
<title>node9&#45;&gt;node10</title>
<path fill="none" stroke="black" d="M374.22,-503.7C364.73,-495.28 353.14,-485.02 342.73,-475.79"/>
<polygon fill="black" stroke="black" points="345.27,-473.36 335.46,-469.35 340.62,-478.6 345.27,-473.36"/>
</g>
<!-- node15 -->
<g id="node15" class="node">
<title>node15</title>
<polygon fill="none" stroke="lightgreen" points="554.62,-468 390.88,-468 390.88,-432 554.62,-432 554.62,-468"/>
<text text-anchor="middle" x="472.75" y="-444.57" font-family="Times,serif" font-size="14.00">Implicit Return Expression</text>
</g>
<!-- node9&#45;&gt;node15 -->
<g id="edge14" class="edge">
<title>node9&#45;&gt;node15</title>
<path fill="none" stroke="black" d="M413.28,-503.7C422.77,-495.28 434.36,-485.02 444.77,-475.79"/>
<polygon fill="black" stroke="black" points="446.88,-478.6 452.04,-469.35 442.23,-473.36 446.88,-478.6"/>
</g>
<!-- node11 -->
<g id="node11" class="node">
<title>node11</title>
<polygon fill="none" stroke="lightgreen" points="388.62,-396 224.88,-396 224.88,-360 388.62,-360 388.62,-396"/>
<text text-anchor="middle" x="306.75" y="-372.57" font-family="Times,serif" font-size="14.00">Implicit Return Expression</text>
</g>
<!-- node10&#45;&gt;node11 -->
<g id="edge10" class="edge">
<title>node10&#45;&gt;node11</title>
<path fill="none" stroke="black" d="M312.77,-431.7C311.94,-424.41 310.95,-415.73 310.01,-407.54"/>
<polygon fill="black" stroke="black" points="313.49,-407.15 308.88,-397.61 306.53,-407.94 313.49,-407.15"/>
</g>
<!-- node12 -->
<g id="node12" class="node">
<title>node12</title>
<polygon fill="none" stroke="green" points="301.75,-324 247.75,-324 247.75,-288 301.75,-288 301.75,-324"/>
<text text-anchor="middle" x="274.75" y="-300.57" font-family="Times,serif" font-size="14.00">Literal</text>
</g>
<!-- node11&#45;&gt;node12 -->
<g id="edge13" class="edge">
<title>node11&#45;&gt;node12</title>
<path fill="none" stroke="black" d="M298.84,-359.7C295.35,-352.07 291.17,-342.92 287.27,-334.4"/>
<polygon fill="black" stroke="black" points="290.54,-333.12 283.2,-325.48 284.17,-336.03 290.54,-333.12"/>
</g>
<!-- node13 -->
<g id="node13" class="node">
<title>node13</title>
<polygon fill="none" stroke="black" points="210.75,-252 128.75,-252 128.75,-216 210.75,-216 210.75,-252"/>
<text text-anchor="middle" x="169.75" y="-228.57" font-family="Times,serif" font-size="14.00">Type: string</text>
</g>
<!-- node12&#45;&gt;node13 -->
<g id="edge11" class="edge">
<title>node12&#45;&gt;node13</title>
<path fill="none" stroke="black" d="M248.52,-287.52C235.4,-278.76 219.32,-268.04 205.11,-258.58"/>
<polygon fill="black" stroke="black" points="207.16,-255.73 196.9,-253.1 203.28,-261.56 207.16,-255.73"/>
</g>
<!-- node14 -->
<g id="node14" class="node">
<title>node14</title>
<polygon fill="none" stroke="black" points="320.25,-252 229.25,-252 229.25,-216 320.25,-216 320.25,-252"/>
<text text-anchor="middle" x="274.75" y="-228.57" font-family="Times,serif" font-size="14.00">Value: &quot;balls&quot;</text>
</g>
<!-- node12&#45;&gt;node14 -->
<g id="edge12" class="edge">
<title>node12&#45;&gt;node14</title>
<path fill="none" stroke="black" d="M274.75,-287.7C274.75,-280.41 274.75,-271.73 274.75,-263.54"/>
<polygon fill="black" stroke="black" points="278.25,-263.62 274.75,-253.62 271.25,-263.62 278.25,-263.62"/>
</g>
<!-- node16 -->
<g id="node16" class="node">
<title>node16</title>
<polygon fill="none" stroke="red" points="562,-396 421.5,-396 421.5,-360 562,-360 562,-396"/>
<text text-anchor="middle" x="491.75" y="-372.57" font-family="Times,serif" font-size="14.00">ConditionalExpression</text>
</g>
<!-- node15&#45;&gt;node16 -->
<g id="edge15" class="edge">
<title>node15&#45;&gt;node16</title>
<path fill="none" stroke="black" d="M477.45,-431.7C479.47,-424.24 481.89,-415.32 484.16,-406.97"/>
<polygon fill="black" stroke="black" points="487.47,-408.13 486.71,-397.57 480.71,-406.3 487.47,-408.13"/>
</g>
<!-- node17 -->
<g id="node17" class="node">
<title>node17</title>
<polygon fill="none" stroke="black" points="442.12,-324 371.38,-324 371.38,-288 442.12,-288 442.12,-324"/>
<text text-anchor="middle" x="406.75" y="-300.57" font-family="Times,serif" font-size="14.00">Condition</text>
</g>
<!-- node16&#45;&gt;node17 -->
<g id="edge16" class="edge">
<title>node16&#45;&gt;node17</title>
<path fill="none" stroke="black" d="M470.74,-359.7C460.42,-351.2 447.81,-340.81 436.52,-331.51"/>
<polygon fill="black" stroke="black" points="438.93,-328.96 428.98,-325.31 434.48,-334.37 438.93,-328.96"/>
</g>
<!-- node24 -->
<g id="node24" class="node">
<title>node24</title>
<polygon fill="none" stroke="black" points="539.25,-324 484.25,-324 484.25,-288 539.25,-288 539.25,-324"/>
<text text-anchor="middle" x="511.75" y="-300.57" font-family="Times,serif" font-size="14.00">IfBody</text>
</g>
<!-- node16&#45;&gt;node24 -->
<g id="edge23" class="edge">
<title>node16&#45;&gt;node24</title>
<path fill="none" stroke="black" d="M496.69,-359.7C498.83,-352.24 501.37,-343.32 503.76,-334.97"/>
<polygon fill="black" stroke="black" points="507.07,-336.14 506.45,-325.56 500.33,-334.21 507.07,-336.14"/>
</g>
<!-- node31 -->
<g id="node31" class="node">
<title>node31</title>
<polygon fill="none" stroke="black" points="678,-324 609.5,-324 609.5,-288 678,-288 678,-324"/>
<text text-anchor="middle" x="643.75" y="-300.57" font-family="Times,serif" font-size="14.00">ElseBody</text>
</g>
<!-- node16&#45;&gt;node31 -->
<g id="edge30" class="edge">
<title>node16&#45;&gt;node31</title>
<path fill="none" stroke="black" d="M529.71,-359.52C550.65,-349.88 576.76,-337.85 598.72,-327.74"/>
<polygon fill="black" stroke="black" points="600.13,-330.94 607.75,-323.58 597.2,-324.58 600.13,-330.94"/>
</g>
<!-- node18 -->
<g id="node18" class="node">
<title>node18</title>
<polygon fill="none" stroke="lightblue" points="451.12,-252 338.38,-252 338.38,-216 451.12,-216 451.12,-252"/>
<text text-anchor="middle" x="394.75" y="-228.57" font-family="Times,serif" font-size="14.00">BinaryExpression</text>
</g>
<!-- node17&#45;&gt;node18 -->
<g id="edge17" class="edge">
<title>node17&#45;&gt;node18</title>
<path fill="none" stroke="black" d="M403.78,-287.7C402.52,-280.32 401.01,-271.52 399.59,-263.25"/>
<polygon fill="black" stroke="black" points="403.08,-262.86 397.94,-253.6 396.18,-264.04 403.08,-262.86"/>
</g>
<!-- node19 -->
<g id="node19" class="node">
<title>node19</title>
<polygon fill="none" stroke="lightblue" points="198.25,-180 119.25,-180 119.25,-144 198.25,-144 198.25,-180"/>
<text text-anchor="middle" x="158.75" y="-156.57" font-family="Times,serif" font-size="14.00">Identifier: x</text>
</g>
<!-- node18&#45;&gt;node19 -->
<g id="edge18" class="edge">
<title>node18&#45;&gt;node19</title>
<path fill="none" stroke="black" d="M338.11,-218.07C303.28,-208.66 257.53,-195.87 209.44,-180.77"/>
<polygon fill="black" stroke="black" points="210.53,-177.44 199.94,-177.76 208.42,-184.11 210.53,-177.44"/>
</g>
<!-- node20 -->
<g id="node20" class="node">
<title>node20</title>
<polygon fill="none" stroke="black" points="351.38,-180 216.12,-180 216.12,-144 351.38,-144 351.38,-180"/>
<text text-anchor="middle" x="283.75" y="-156.57" font-family="Times,serif" font-size="14.00">Operator: LesserThan</text>
</g>
<!-- node18&#45;&gt;node20 -->
<g id="edge19" class="edge">
<title>node18&#45;&gt;node20</title>
<path fill="none" stroke="black" d="M367.03,-215.52C353.01,-206.68 335.82,-195.84 320.7,-186.3"/>
<polygon fill="black" stroke="black" points="322.73,-183.44 312.4,-181.07 318.99,-189.36 322.73,-183.44"/>
</g>
<!-- node21 -->
<g id="node21" class="node">
<title>node21</title>
<polygon fill="none" stroke="green" points="423.75,-180 369.75,-180 369.75,-144 423.75,-144 423.75,-180"/>
<text text-anchor="middle" x="396.75" y="-156.57" font-family="Times,serif" font-size="14.00">Literal</text>
</g>
<!-- node18&#45;&gt;node21 -->
<g id="edge22" class="edge">
<title>node18&#45;&gt;node21</title>
<path fill="none" stroke="black" d="M395.24,-215.7C395.45,-208.41 395.7,-199.73 395.93,-191.54"/>
<polygon fill="black" stroke="black" points="399.43,-191.71 396.22,-181.62 392.43,-191.51 399.43,-191.71"/>
</g>
<!-- node22 -->
<g id="node22" class="node">
<title>node22</title>
<polygon fill="none" stroke="black" points="348.5,-108 283,-108 283,-72 348.5,-72 348.5,-108"/>
<text text-anchor="middle" x="315.75" y="-84.58" font-family="Times,serif" font-size="14.00">Type: int</text>
</g>
<!-- node21&#45;&gt;node22 -->
<g id="edge20" class="edge">
<title>node21&#45;&gt;node22</title>
<path fill="none" stroke="black" d="M376.73,-143.7C366.99,-135.28 355.11,-125.02 344.44,-115.79"/>
<polygon fill="black" stroke="black" points="346.82,-113.23 336.97,-109.34 342.25,-118.52 346.82,-113.23"/>
</g>
<!-- node23 -->
<g id="node23" class="node">
<title>node23</title>
<polygon fill="none" stroke="black" points="435,-108 366.5,-108 366.5,-72 435,-72 435,-108"/>
<text text-anchor="middle" x="400.75" y="-84.58" font-family="Times,serif" font-size="14.00">Value: 10</text>
</g>
<!-- node21&#45;&gt;node23 -->
<g id="edge21" class="edge">
<title>node21&#45;&gt;node23</title>
<path fill="none" stroke="black" d="M397.74,-143.7C398.16,-136.41 398.65,-127.73 399.12,-119.54"/>
<polygon fill="black" stroke="black" points="402.61,-119.8 399.69,-109.62 395.62,-119.4 402.61,-119.8"/>
</g>
<!-- node25 -->
<g id="node25" class="node">
<title>node25</title>
<polygon fill="none" stroke="purple" points="578.25,-252 469.25,-252 469.25,-216 578.25,-216 578.25,-252"/>
<text text-anchor="middle" x="523.75" y="-228.57" font-family="Times,serif" font-size="14.00">BlockExpression</text>
</g>
<!-- node24&#45;&gt;node25 -->
<g id="edge24" class="edge">
<title>node24&#45;&gt;node25</title>
<path fill="none" stroke="black" d="M514.72,-287.7C515.98,-280.32 517.49,-271.52 518.91,-263.25"/>
<polygon fill="black" stroke="black" points="522.32,-264.04 520.56,-253.6 515.42,-262.86 522.32,-264.04"/>
</g>
<!-- node26 -->
<g id="node26" class="node">
<title>node26</title>
<polygon fill="none" stroke="lightgreen" points="605.62,-180 441.88,-180 441.88,-144 605.62,-144 605.62,-180"/>
<text text-anchor="middle" x="523.75" y="-156.57" font-family="Times,serif" font-size="14.00">Implicit Return Expression</text>
</g>
<!-- node25&#45;&gt;node26 -->
<g id="edge25" class="edge">
<title>node25&#45;&gt;node26</title>
<path fill="none" stroke="black" d="M523.75,-215.7C523.75,-208.41 523.75,-199.73 523.75,-191.54"/>
<polygon fill="black" stroke="black" points="527.25,-191.62 523.75,-181.62 520.25,-191.62 527.25,-191.62"/>
</g>
<!-- node27 -->
<g id="node27" class="node">
<title>node27</title>
<polygon fill="none" stroke="lightblue" points="571.12,-108 458.38,-108 458.38,-72 571.12,-72 571.12,-108"/>
<text text-anchor="middle" x="514.75" y="-84.58" font-family="Times,serif" font-size="14.00">BinaryExpression</text>
</g>
<!-- node26&#45;&gt;node27 -->
<g id="edge26" class="edge">
<title>node26&#45;&gt;node27</title>
<path fill="none" stroke="black" d="M521.53,-143.7C520.58,-136.32 519.45,-127.52 518.38,-119.25"/>
<polygon fill="black" stroke="black" points="521.89,-119.08 517.14,-109.61 514.95,-119.97 521.89,-119.08"/>
</g>
<!-- node28 -->
<g id="node28" class="node">
<title>node28</title>
<polygon fill="none" stroke="lightblue" points="374.25,-36 295.25,-36 295.25,0 374.25,0 374.25,-36"/>
<text text-anchor="middle" x="334.75" y="-12.57" font-family="Times,serif" font-size="14.00">Identifier: x</text>
</g>
<!-- node27&#45;&gt;node28 -->
<g id="edge27" class="edge">
<title>node27&#45;&gt;node28</title>
<path fill="none" stroke="black" d="M469.79,-71.52C444.08,-61.52 411.75,-48.94 385.17,-38.61"/>
<polygon fill="black" stroke="black" points="386.54,-35.39 375.95,-35.02 384.01,-41.91 386.54,-35.39"/>
</g>
<!-- node29 -->
<g id="node29" class="node">
<title>node29</title>
<polygon fill="none" stroke="black" points="512.88,-36 392.62,-36 392.62,0 512.88,0 512.88,-36"/>
<text text-anchor="middle" x="452.75" y="-12.57" font-family="Times,serif" font-size="14.00">Operator: Addition</text>
</g>
<!-- node27&#45;&gt;node29 -->
<g id="edge28" class="edge">
<title>node27&#45;&gt;node29</title>
<path fill="none" stroke="black" d="M499.42,-71.7C492.22,-63.56 483.47,-53.69 475.51,-44.7"/>
<polygon fill="black" stroke="black" points="478.15,-42.4 468.9,-37.24 472.91,-47.04 478.15,-42.4"/>
</g>
<!-- node30 -->
<g id="node30" class="node">
<title>node30</title>
<polygon fill="none" stroke="lightblue" points="610.25,-36 531.25,-36 531.25,0 610.25,0 610.25,-36"/>
<text text-anchor="middle" x="570.75" y="-12.57" font-family="Times,serif" font-size="14.00">Identifier: n</text>
</g>
<!-- node27&#45;&gt;node30 -->
<g id="edge29" class="edge">
<title>node27&#45;&gt;node30</title>
<path fill="none" stroke="black" d="M528.59,-71.7C535.04,-63.64 542.83,-53.89 549.96,-44.98"/>
<polygon fill="black" stroke="black" points="552.61,-47.28 556.12,-37.29 547.14,-42.91 552.61,-47.28"/>
</g>
<!-- node32 -->
<g id="node32" class="node">
<title>node32</title>
<polygon fill="none" stroke="purple" points="738.25,-252 629.25,-252 629.25,-216 738.25,-216 738.25,-252"/>
<text text-anchor="middle" x="683.75" y="-228.57" font-family="Times,serif" font-size="14.00">BlockExpression</text>
</g>
<!-- node31&#45;&gt;node32 -->
<g id="edge31" class="edge">
<title>node31&#45;&gt;node32</title>
<path fill="none" stroke="black" d="M653.64,-287.7C658.09,-279.9 663.46,-270.51 668.42,-261.83"/>
<polygon fill="black" stroke="black" points="671.3,-263.84 673.23,-253.42 665.22,-260.36 671.3,-263.84"/>
</g>
<!-- node33 -->
<g id="node33" class="node">
<title>node33</title>
<polygon fill="none" stroke="lightgreen" points="799.62,-180 635.88,-180 635.88,-144 799.62,-144 799.62,-180"/>
<text text-anchor="middle" x="717.75" y="-156.57" font-family="Times,serif" font-size="14.00">Implicit Return Expression</text>
</g>
<!-- node32&#45;&gt;node33 -->
<g id="edge32" class="edge">
<title>node32&#45;&gt;node33</title>
<path fill="none" stroke="black" d="M692.15,-215.7C695.86,-208.07 700.31,-198.92 704.44,-190.4"/>
<polygon fill="black" stroke="black" points="707.56,-191.99 708.78,-181.47 701.26,-188.93 707.56,-191.99"/>
</g>
<!-- node34 -->
<g id="node34" class="node">
<title>node34</title>
<polygon fill="none" stroke="lightblue" points="780.12,-108 667.38,-108 667.38,-72 780.12,-72 780.12,-108"/>
<text text-anchor="middle" x="723.75" y="-84.58" font-family="Times,serif" font-size="14.00">BinaryExpression</text>
</g>
<!-- node33&#45;&gt;node34 -->
<g id="edge33" class="edge">
<title>node33&#45;&gt;node34</title>
<path fill="none" stroke="black" d="M719.23,-143.7C719.86,-136.41 720.6,-127.73 721.3,-119.54"/>
<polygon fill="black" stroke="black" points="724.79,-119.87 722.15,-109.61 717.81,-119.28 724.79,-119.87"/>
</g>
<!-- node35 -->
<g id="node35" class="node">
<title>node35</title>
<polygon fill="none" stroke="lightblue" points="707.25,-36 628.25,-36 628.25,0 707.25,0 707.25,-36"/>
<text text-anchor="middle" x="667.75" y="-12.57" font-family="Times,serif" font-size="14.00">Identifier: x</text>
</g>
<!-- node34&#45;&gt;node35 -->
<g id="edge34" class="edge">
<title>node34&#45;&gt;node35</title>
<path fill="none" stroke="black" d="M709.91,-71.7C703.46,-63.64 695.67,-53.89 688.54,-44.98"/>
<polygon fill="black" stroke="black" points="691.36,-42.91 682.38,-37.29 685.89,-47.28 691.36,-42.91"/>
</g>
<!-- node36 -->
<g id="node36" class="node">
<title>node36</title>
<polygon fill="none" stroke="black" points="860,-36 725.5,-36 725.5,0 860,0 860,-36"/>
<text text-anchor="middle" x="792.75" y="-12.57" font-family="Times,serif" font-size="14.00">Operator: Subtraction</text>
</g>
<!-- node34&#45;&gt;node36 -->
<g id="edge35" class="edge">
<title>node34&#45;&gt;node36</title>
<path fill="none" stroke="black" d="M740.81,-71.7C748.99,-63.39 758.96,-53.28 767.97,-44.14"/>
<polygon fill="black" stroke="black" points="770.3,-46.76 774.83,-37.18 765.31,-41.85 770.3,-46.76"/>
</g>
<!-- node37 -->
<g id="node37" class="node">
<title>node37</title>
<polygon fill="none" stroke="lightblue" points="957.25,-36 878.25,-36 878.25,0 957.25,0 957.25,-36"/>
<text text-anchor="middle" x="917.75" y="-12.57" font-family="Times,serif" font-size="14.00">Identifier: n</text>
</g>
<!-- node34&#45;&gt;node37 -->
<g id="edge36" class="edge">
<title>node34&#45;&gt;node37</title>
<path fill="none" stroke="black" d="M772.2,-71.52C801.29,-61.02 838.22,-47.69 867.61,-37.09"/>
<polygon fill="black" stroke="black" points="868.42,-40.52 876.64,-33.83 866.04,-33.94 868.42,-40.52"/>
</g>
</g>
</svg>
